<svg width="221" height="44" viewBox="0 0 221 44" fill="none" xmlns="http://www.w3.org/2000/svg">
<path d="M4.9 4.46V7.26H10.34V9.92H4.9V15H1.46V1.8H11.72V4.46H4.9ZM17.27 4.8C18.9367 4.8 20.23 5.26 21.15 6.18C22.0833 7.08667 22.55 8.36 22.55 10C22.55 11.64 22.0833 12.92 21.15 13.84C20.23 14.7467 18.9367 15.2 17.27 15.2C15.6033 15.2 14.3033 14.7467 13.37 13.84C12.45 12.92 11.99 11.64 11.99 10C11.99 8.36 12.45 7.08667 13.37 6.18C14.3033 5.26 15.6033 4.8 17.27 4.8ZM17.27 7.22C16.63 7.22 16.1567 7.44 15.85 7.88C15.5433 8.32 15.39 9.02667 15.39 10C15.39 10.9733 15.5433 11.68 15.85 12.12C16.1567 12.56 16.63 12.78 17.27 12.78C17.91 12.78 18.3833 12.56 18.69 12.12C18.9967 11.68 19.15 10.9733 19.15 10C19.15 9.02667 18.9967 8.32 18.69 7.88C18.3833 7.44 17.91 7.22 17.27 7.22ZM34.4613 5V15H31.4213L31.3213 13.14C30.6946 14.5133 29.5413 15.2 27.8613 15.2C26.7946 15.2 25.9546 14.92 25.3413 14.36C24.7413 13.7867 24.4413 12.8933 24.4413 11.68V5H27.8413V10.82C27.8413 11.4733 27.9546 11.9333 28.1813 12.2C28.4079 12.4667 28.7546 12.6 29.2213 12.6C29.7813 12.6 30.2279 12.4133 30.5613 12.04C30.8946 11.6533 31.0613 11.0733 31.0613 10.3V5H34.4613ZM43.4636 4.8C44.5169 4.8 45.3569 5.10667 45.9836 5.72C46.6103 6.33333 46.9236 7.20667 46.9236 8.34V15H43.5236V9.28C43.5236 8.6 43.3969 8.12 43.1436 7.84C42.9036 7.54667 42.5569 7.4 42.1036 7.4C41.5703 7.4 41.1369 7.59333 40.8036 7.98C40.4703 8.35333 40.3036 8.93333 40.3036 9.72V15H36.9036V5H39.9436L40.0436 6.92C40.3636 6.21333 40.8169 5.68667 41.4036 5.34C41.9903 4.98 42.6769 4.8 43.4636 4.8ZM59.4459 0.76V15H56.3859L56.2659 13.1C55.9726 13.7533 55.5393 14.2667 54.9659 14.64C54.4059 15.0133 53.7526 15.2 53.0059 15.2C51.7126 15.2 50.6993 14.7467 49.9659 13.84C49.2459 12.9333 48.8859 11.6667 48.8859 10.04C48.8859 8.38667 49.2526 7.1 49.9859 6.18C50.7193 5.26 51.7326 4.8 53.0259 4.8C53.7326 4.8 54.3393 4.96667 54.8459 5.3C55.3526 5.63333 55.7526 6.09333 56.0459 6.68V0.76H59.4459ZM54.1859 12.7C54.7326 12.7 55.1659 12.5067 55.4859 12.12C55.8193 11.72 56.0059 11.1467 56.0459 10.4V9.6C56.0059 8.86667 55.8193 8.3 55.4859 7.9C55.1659 7.5 54.7326 7.3 54.1859 7.3C53.5859 7.3 53.1193 7.52 52.7859 7.96C52.4659 8.4 52.3059 9.08 52.3059 10C52.3059 10.92 52.4659 11.6 52.7859 12.04C53.1193 12.48 53.5859 12.7 54.1859 12.7ZM71.5245 13.06C71.7779 13.06 71.9845 13.0333 72.1445 12.98L71.8845 14.88C71.4979 15.0933 71.0445 15.2 70.5245 15.2C69.0845 15.2 68.2245 14.6867 67.9445 13.66C67.3445 14.6867 66.1579 15.2 64.3845 15.2C63.3845 15.2 62.6179 14.9867 62.0845 14.56C61.5512 14.1333 61.2845 13.5133 61.2845 12.7C61.2845 11.8467 61.5845 11.16 62.1845 10.64C62.7979 10.1067 63.7979 9.7 65.1845 9.42L67.4445 8.98V8.62C67.4445 8.16667 67.3179 7.80667 67.0645 7.54C66.8112 7.27333 66.4645 7.14 66.0245 7.14C65.5179 7.14 65.1045 7.26 64.7845 7.5C64.4645 7.74 64.2579 8.13333 64.1645 8.68L61.4045 7.88C61.5779 6.90667 62.0579 6.15333 62.8445 5.62C63.6312 5.07333 64.6912 4.8 66.0245 4.8C67.5845 4.8 68.7712 5.12 69.5845 5.76C70.3979 6.4 70.8045 7.36 70.8045 8.64V12.28C70.8045 12.8 71.0445 13.06 71.5245 13.06ZM65.6245 13C66.0912 13 66.5112 12.8733 66.8845 12.62C67.2579 12.3533 67.4445 12.0067 67.4445 11.58V10.72L65.8245 11.1C65.3979 11.2067 65.0912 11.34 64.9045 11.5C64.7312 11.6467 64.6445 11.86 64.6445 12.14C64.6445 12.42 64.7312 12.6333 64.9045 12.78C65.0779 12.9267 65.3179 13 65.6245 13ZM80.355 14.44C80.0217 14.6667 79.595 14.8533 79.075 15C78.5683 15.1333 78.055 15.2 77.535 15.2C76.3483 15.2 75.4417 14.9467 74.815 14.44C74.1883 13.9333 73.8683 13.12 73.855 12V7.42H72.135V5H73.855V2.76L77.255 1.82V5H80.255V7.42H77.255V11.44C77.255 12.3333 77.695 12.78 78.575 12.78C79.1217 12.78 79.6017 12.6333 80.015 12.34L80.355 14.44ZM83.4864 3.84C82.7931 3.84 82.2864 3.71333 81.9664 3.46C81.6597 3.19333 81.5064 2.78 81.5064 2.22C81.5064 1.64667 81.6597 1.23333 81.9664 0.979999C82.2864 0.713333 82.7931 0.58 83.4864 0.58C84.1797 0.58 84.6797 0.713333 84.9864 0.979999C85.3064 1.23333 85.4664 1.64667 85.4664 2.22C85.4664 2.78 85.3064 3.19333 84.9864 3.46C84.6797 3.71333 84.1797 3.84 83.4864 3.84ZM85.1864 15H81.7864V5H85.1864V15ZM92.4067 4.8C94.0734 4.8 95.3667 5.26 96.2867 6.18C97.2201 7.08667 97.6867 8.36 97.6867 10C97.6867 11.64 97.2201 12.92 96.2867 13.84C95.3667 14.7467 94.0734 15.2 92.4067 15.2C90.7401 15.2 89.4401 14.7467 88.5067 13.84C87.5867 12.92 87.1267 11.64 87.1267 10C87.1267 8.36 87.5867 7.08667 88.5067 6.18C89.4401 5.26 90.7401 4.8 92.4067 4.8ZM92.4067 7.22C91.7667 7.22 91.2934 7.44 90.9867 7.88C90.6801 8.32 90.5267 9.02667 90.5267 10C90.5267 10.9733 90.6801 11.68 90.9867 12.12C91.2934 12.56 91.7667 12.78 92.4067 12.78C93.0467 12.78 93.5201 12.56 93.8267 12.12C94.1334 11.68 94.2867 10.9733 94.2867 10C94.2867 9.02667 94.1334 8.32 93.8267 7.88C93.5201 7.44 93.0467 7.22 92.4067 7.22ZM106.198 4.8C107.251 4.8 108.091 5.10667 108.718 5.72C109.345 6.33333 109.658 7.20667 109.658 8.34V15H106.258V9.28C106.258 8.6 106.131 8.12 105.878 7.84C105.638 7.54667 105.291 7.4 104.838 7.4C104.305 7.4 103.871 7.59333 103.538 7.98C103.205 8.35333 103.038 8.93333 103.038 9.72V15H99.638V5H102.678L102.778 6.92C103.098 6.21333 103.551 5.68667 104.138 5.34C104.725 4.98 105.411 4.8 106.198 4.8Z" fill="#2B292D"/>
<path d="M5.76 27.94C7.884 27.94 9.414 28.78 10.35 30.46L9.108 31.468C8.748 30.676 8.316 30.118 7.812 29.794C7.32 29.458 6.642 29.29 5.778 29.29C4.866 29.29 4.146 29.482 3.618 29.866C3.102 30.238 2.844 30.718 2.844 31.306C2.844 31.69 2.946 32.008 3.15 32.26C3.354 32.512 3.69 32.734 4.158 32.926C4.638 33.106 5.298 33.268 6.138 33.412C7.71 33.676 8.82 34.072 9.468 34.6C10.128 35.128 10.458 35.86 10.458 36.796C10.458 37.468 10.266 38.062 9.882 38.578C9.51 39.082 8.976 39.478 8.28 39.766C7.584 40.042 6.78 40.18 5.868 40.18C4.668 40.18 3.642 39.946 2.79 39.478C1.95 39.01 1.308 38.386 0.864 37.606L2.106 36.598C2.43 37.306 2.904 37.858 3.528 38.254C4.164 38.638 4.956 38.83 5.904 38.83C6.84 38.83 7.584 38.662 8.136 38.326C8.688 37.978 8.964 37.492 8.964 36.868C8.964 36.34 8.724 35.92 8.244 35.608C7.764 35.296 6.912 35.032 5.688 34.816C4.104 34.54 2.982 34.144 2.322 33.628C1.662 33.112 1.332 32.392 1.332 31.468C1.332 30.832 1.512 30.244 1.872 29.704C2.232 29.164 2.748 28.738 3.42 28.426C4.092 28.102 4.872 27.94 5.76 27.94ZM18.7133 39.37C18.1133 39.91 17.3393 40.18 16.3913 40.18C15.6593 40.18 15.0593 39.982 14.5913 39.586C14.1353 39.19 13.9013 38.584 13.8893 37.768V32.242H12.0893V31H13.8893V28.84L15.3293 28.444V31H18.6593V32.242H15.3293V37.516C15.3293 37.948 15.4493 38.278 15.6893 38.506C15.9413 38.722 16.2713 38.83 16.6793 38.83C17.2553 38.83 17.7653 38.608 18.2093 38.164L18.7133 39.37ZM28.1263 38.956C28.3663 38.956 28.6063 38.926 28.8463 38.866L28.7563 40C28.4203 40.12 28.0603 40.18 27.6763 40.18C27.2083 40.18 26.8363 40.078 26.5603 39.874C26.2963 39.67 26.1283 39.328 26.0563 38.848C25.7803 39.268 25.3723 39.598 24.8323 39.838C24.3043 40.066 23.7463 40.18 23.1583 40.18C22.2703 40.18 21.5383 39.976 20.9623 39.568C20.3863 39.148 20.0983 38.548 20.0983 37.768C20.0983 37.084 20.3983 36.496 20.9983 36.004C21.5983 35.5 22.4683 35.152 23.6083 34.96L26.0023 34.564V34.06C26.0023 33.46 25.8163 32.98 25.4443 32.62C25.0723 32.26 24.5563 32.08 23.8963 32.08C23.2963 32.08 22.7743 32.224 22.3303 32.512C21.8983 32.8 21.5623 33.226 21.3223 33.79L20.2603 33.016C20.5003 32.344 20.9443 31.81 21.5923 31.414C22.2523 31.018 23.0203 30.82 23.8963 30.82C24.9643 30.82 25.8223 31.078 26.4703 31.594C27.1183 32.11 27.4423 32.872 27.4423 33.88V38.308C27.4423 38.524 27.4963 38.686 27.6043 38.794C27.7123 38.902 27.8863 38.956 28.1263 38.956ZM23.2303 38.92C23.9863 38.92 24.6343 38.74 25.1743 38.38C25.7263 38.02 26.0023 37.552 26.0023 36.976V35.734L23.9863 36.112C23.1823 36.256 22.5823 36.466 22.1863 36.742C21.7903 37.006 21.5923 37.348 21.5923 37.768C21.5923 38.14 21.7363 38.428 22.0243 38.632C22.3123 38.824 22.7143 38.92 23.2303 38.92ZM35.1896 30.82C35.6216 30.82 35.9516 30.88 36.1796 31L35.8916 32.404C35.6036 32.248 35.2256 32.17 34.7576 32.17C34.3736 32.17 33.9956 32.284 33.6236 32.512C33.2636 32.728 32.9636 33.064 32.7236 33.52C32.4956 33.964 32.3816 34.504 32.3816 35.14V40H30.9416V31H32.1116L32.3096 32.476C32.8136 31.372 33.7736 30.82 35.1896 30.82ZM43.2523 39.37C42.6523 39.91 41.8783 40.18 40.9303 40.18C40.1983 40.18 39.5983 39.982 39.1303 39.586C38.6743 39.19 38.4403 38.584 38.4283 37.768V32.242H36.6283V31H38.4283V28.84L39.8683 28.444V31H43.1983V32.242H39.8683V37.516C39.8683 37.948 39.9883 38.278 40.2283 38.506C40.4803 38.722 40.8103 38.83 41.2183 38.83C41.7943 38.83 42.3043 38.608 42.7483 38.164L43.2523 39.37ZM53.0793 31V40H51.8193L51.7293 38.632C51.1293 39.664 50.0553 40.18 48.5073 40.18C47.5353 40.18 46.7373 39.91 46.1133 39.37C45.5013 38.83 45.1953 38.002 45.1953 36.886V31H46.6353V36.508C46.6353 37.384 46.8153 38.008 47.1753 38.38C47.5353 38.74 48.0633 38.92 48.7593 38.92C49.5873 38.92 50.2713 38.668 50.8113 38.164C51.3633 37.66 51.6393 36.904 51.6393 35.896V31H53.0793ZM60.8579 30.82C62.1179 30.82 63.1139 31.24 63.8459 32.08C64.5899 32.908 64.9619 34.048 64.9619 35.5C64.9619 36.952 64.5899 38.098 63.8459 38.938C63.1139 39.766 62.1179 40.18 60.8579 40.18C60.1979 40.18 59.6039 40.036 59.0759 39.748C58.5599 39.46 58.1579 39.076 57.8699 38.596V43.78H56.4299V31H57.6899L57.7799 32.566C58.0439 32.038 58.4459 31.618 58.9859 31.306C59.5379 30.982 60.1619 30.82 60.8579 30.82ZM60.6959 38.92C61.5719 38.92 62.2619 38.614 62.7659 38.002C63.2699 37.378 63.5219 36.544 63.5219 35.5C63.5219 34.456 63.2699 33.628 62.7659 33.016C62.2619 32.392 61.5719 32.08 60.6959 32.08C59.8319 32.08 59.1419 32.38 58.6259 32.98C58.1219 33.58 57.8699 34.384 57.8699 35.392V35.608C57.8699 36.616 58.1219 37.42 58.6259 38.02C59.1419 38.62 59.8319 38.92 60.6959 38.92ZM75.2705 37.588C75.2705 38.044 75.3365 38.362 75.4685 38.542C75.6125 38.71 75.8705 38.794 76.2425 38.794C76.4945 38.794 76.7105 38.776 76.8905 38.74C77.0825 38.704 77.3045 38.638 77.5565 38.542L77.3225 39.928C76.9265 40.096 76.4825 40.18 75.9905 40.18C75.2585 40.18 74.7125 39.982 74.3525 39.586C74.0045 39.19 73.8305 38.584 73.8305 37.768V26.86H75.2705V37.588ZM86.7845 38.956C87.0245 38.956 87.2645 38.926 87.5045 38.866L87.4145 40C87.0785 40.12 86.7185 40.18 86.3345 40.18C85.8665 40.18 85.4945 40.078 85.2185 39.874C84.9545 39.67 84.7865 39.328 84.7145 38.848C84.4385 39.268 84.0305 39.598 83.4905 39.838C82.9625 40.066 82.4045 40.18 81.8165 40.18C80.9285 40.18 80.1965 39.976 79.6205 39.568C79.0445 39.148 78.7565 38.548 78.7565 37.768C78.7565 37.084 79.0565 36.496 79.6565 36.004C80.2565 35.5 81.1265 35.152 82.2665 34.96L84.6605 34.564V34.06C84.6605 33.46 84.4745 32.98 84.1025 32.62C83.7305 32.26 83.2145 32.08 82.5545 32.08C81.9545 32.08 81.4325 32.224 80.9885 32.512C80.5565 32.8 80.2205 33.226 79.9805 33.79L78.9185 33.016C79.1585 32.344 79.6025 31.81 80.2505 31.414C80.9105 31.018 81.6785 30.82 82.5545 30.82C83.6225 30.82 84.4805 31.078 85.1285 31.594C85.7765 32.11 86.1005 32.872 86.1005 33.88V38.308C86.1005 38.524 86.1545 38.686 86.2625 38.794C86.3705 38.902 86.5445 38.956 86.7845 38.956ZM81.8885 38.92C82.6445 38.92 83.2925 38.74 83.8325 38.38C84.3845 38.02 84.6605 37.552 84.6605 36.976V35.734L82.6445 36.112C81.8405 36.256 81.2405 36.466 80.8445 36.742C80.4485 37.006 80.2505 37.348 80.2505 37.768C80.2505 38.14 80.3945 38.428 80.6825 38.632C80.9705 38.824 81.3725 38.92 81.8885 38.92ZM93.9738 30.82C94.9938 30.82 95.8338 31.114 96.4938 31.702C97.1538 32.29 97.4838 33.136 97.4838 34.24V40H96.0438V34.744C96.0438 33.808 95.8398 33.13 95.4318 32.71C95.0358 32.29 94.5018 32.08 93.8298 32.08C93.3498 32.08 92.8998 32.188 92.4798 32.404C92.0598 32.608 91.7118 32.95 91.4358 33.43C91.1718 33.898 91.0398 34.492 91.0398 35.212V40H89.5998V31H90.8598L90.9498 32.404C91.2498 31.864 91.6638 31.468 92.1918 31.216C92.7198 30.952 93.3138 30.82 93.9738 30.82ZM108.736 26.86V40H107.476L107.386 38.434C107.122 38.962 106.714 39.388 106.162 39.712C105.622 40.024 105.004 40.18 104.308 40.18C103.048 40.18 102.046 39.766 101.302 38.938C100.57 38.098 100.204 36.952 100.204 35.5C100.204 34.048 100.57 32.908 101.302 32.08C102.046 31.24 103.048 30.82 104.308 30.82C104.968 30.82 105.556 30.964 106.072 31.252C106.6 31.54 107.008 31.924 107.296 32.404V26.86H108.736ZM104.47 38.92C105.334 38.92 106.018 38.62 106.522 38.02C107.038 37.42 107.296 36.616 107.296 35.608V35.392C107.296 34.384 107.038 33.58 106.522 32.98C106.018 32.38 105.334 32.08 104.47 32.08C103.594 32.08 102.904 32.392 102.4 33.016C101.896 33.628 101.644 34.456 101.644 35.5C101.644 36.544 101.896 37.378 102.4 38.002C102.904 38.614 103.594 38.92 104.47 38.92ZM112.802 29.272C112.478 29.272 112.214 29.176 112.01 28.984C111.818 28.78 111.722 28.516 111.722 28.192C111.722 27.868 111.818 27.61 112.01 27.418C112.214 27.214 112.478 27.112 112.802 27.112C113.126 27.112 113.384 27.214 113.576 27.418C113.78 27.61 113.882 27.868 113.882 28.192C113.882 28.516 113.78 28.78 113.576 28.984C113.384 29.176 113.126 29.272 112.802 29.272ZM113.522 40H112.082V31H113.522V40ZM121.237 30.82C122.257 30.82 123.097 31.114 123.757 31.702C124.417 32.29 124.747 33.136 124.747 34.24V40H123.307V34.744C123.307 33.808 123.103 33.13 122.695 32.71C122.299 32.29 121.765 32.08 121.093 32.08C120.613 32.08 120.163 32.188 119.743 32.404C119.323 32.608 118.975 32.95 118.699 33.43C118.435 33.898 118.303 34.492 118.303 35.212V40H116.863V31H118.123L118.213 32.404C118.513 31.864 118.927 31.468 119.455 31.216C119.983 30.952 120.577 30.82 121.237 30.82ZM133.03 38.848C133.882 38.848 134.548 39.04 135.028 39.424C135.508 39.808 135.748 40.33 135.748 40.99C135.748 41.566 135.55 42.07 135.154 42.502C134.758 42.946 134.218 43.282 133.534 43.51C132.862 43.75 132.118 43.87 131.302 43.87C129.934 43.87 128.902 43.648 128.206 43.204C127.51 42.772 127.162 42.202 127.162 41.494C127.162 41.086 127.3 40.726 127.576 40.414C127.864 40.102 128.254 39.88 128.746 39.748C128.374 39.568 128.074 39.34 127.846 39.064C127.63 38.788 127.522 38.464 127.522 38.092C127.522 37.648 127.642 37.282 127.882 36.994C128.122 36.694 128.452 36.472 128.872 36.328C128.44 36.064 128.11 35.722 127.882 35.302C127.666 34.87 127.558 34.39 127.558 33.862C127.558 33.274 127.714 32.752 128.026 32.296C128.338 31.828 128.776 31.468 129.34 31.216C129.904 30.952 130.54 30.82 131.248 30.82C131.92 30.82 132.532 30.94 133.084 31.18C133.42 29.956 134.266 29.344 135.622 29.344L135.946 30.604C134.77 30.604 134.056 30.934 133.804 31.594C134.164 31.87 134.44 32.2 134.632 32.584C134.836 32.968 134.938 33.394 134.938 33.862C134.938 34.45 134.782 34.978 134.47 35.446C134.158 35.902 133.72 36.262 133.156 36.526C132.592 36.778 131.956 36.904 131.248 36.904C130.72 36.904 130.258 36.85 129.862 36.742C129.502 36.826 129.244 36.958 129.088 37.138C128.932 37.318 128.854 37.564 128.854 37.876C128.854 38.188 128.962 38.428 129.178 38.596C129.394 38.764 129.682 38.848 130.042 38.848H133.03ZM131.248 31.99C130.624 31.99 130.102 32.164 129.682 32.512C129.262 32.86 129.052 33.31 129.052 33.862C129.052 34.414 129.262 34.864 129.682 35.212C130.102 35.56 130.624 35.734 131.248 35.734C131.872 35.734 132.394 35.56 132.814 35.212C133.234 34.864 133.444 34.414 133.444 33.862C133.444 33.31 133.234 32.86 132.814 32.512C132.394 32.164 131.872 31.99 131.248 31.99ZM131.464 42.664C132.376 42.664 133.096 42.514 133.624 42.214C134.152 41.926 134.416 41.572 134.416 41.152C134.416 40.804 134.278 40.54 134.002 40.36C133.738 40.18 133.282 40.09 132.634 40.09H130.222C129.67 40.09 129.244 40.186 128.944 40.378C128.644 40.582 128.494 40.858 128.494 41.206C128.494 41.662 128.746 42.016 129.25 42.268C129.754 42.532 130.492 42.664 131.464 42.664ZM149.178 39.37C148.578 39.91 147.804 40.18 146.856 40.18C146.124 40.18 145.524 39.982 145.056 39.586C144.6 39.19 144.366 38.584 144.354 37.768V32.242H142.554V31H144.354V28.84L145.794 28.444V31H149.124V32.242H145.794V37.516C145.794 37.948 145.914 38.278 146.154 38.506C146.406 38.722 146.736 38.83 147.144 38.83C147.72 38.83 148.23 38.608 148.674 38.164L149.178 39.37ZM158.933 35.032C158.933 35.368 158.909 35.704 158.861 36.04H152.075C152.159 36.952 152.459 37.66 152.975 38.164C153.503 38.668 154.181 38.92 155.009 38.92C155.669 38.92 156.215 38.806 156.647 38.578C157.091 38.35 157.391 38.02 157.547 37.588L158.753 38.218C158.393 38.854 157.913 39.34 157.313 39.676C156.713 40.012 155.945 40.18 155.009 40.18C153.653 40.18 152.585 39.766 151.805 38.938C151.037 38.11 150.653 36.964 150.653 35.5C150.653 34.036 151.019 32.89 151.751 32.062C152.495 31.234 153.545 30.82 154.901 30.82C155.741 30.82 156.467 31.006 157.079 31.378C157.691 31.75 158.153 32.254 158.465 32.89C158.777 33.526 158.933 34.24 158.933 35.032ZM154.901 32.08C154.109 32.08 153.467 32.314 152.975 32.782C152.495 33.25 152.201 33.91 152.093 34.762H157.547C157.451 33.922 157.175 33.268 156.719 32.8C156.263 32.32 155.657 32.08 154.901 32.08ZM172.128 30.82C172.728 30.82 173.286 30.946 173.802 31.198C174.33 31.438 174.756 31.816 175.08 32.332C175.404 32.848 175.566 33.484 175.566 34.24V40H174.126V34.384C174.126 33.604 173.928 33.028 173.532 32.656C173.148 32.272 172.638 32.08 172.002 32.08C171.522 32.08 171.078 32.2 170.67 32.44C170.274 32.668 169.95 33.01 169.698 33.466C169.458 33.91 169.338 34.444 169.338 35.068V40H167.898V34.384C167.898 33.604 167.7 33.028 167.304 32.656C166.92 32.272 166.41 32.08 165.774 32.08C165.342 32.08 164.922 32.194 164.514 32.422C164.106 32.638 163.77 32.98 163.506 33.448C163.242 33.916 163.11 34.498 163.11 35.194V40H161.67V31H162.93L163.02 32.404C163.332 31.876 163.74 31.48 164.244 31.216C164.76 30.952 165.312 30.82 165.9 30.82C166.56 30.82 167.166 30.97 167.718 31.27C168.282 31.57 168.708 32.008 168.996 32.584C169.26 32.008 169.692 31.57 170.292 31.27C170.892 30.97 171.504 30.82 172.128 30.82ZM183.254 30.82C184.514 30.82 185.51 31.24 186.242 32.08C186.986 32.908 187.358 34.048 187.358 35.5C187.358 36.952 186.986 38.098 186.242 38.938C185.51 39.766 184.514 40.18 183.254 40.18C182.594 40.18 182 40.036 181.472 39.748C180.956 39.46 180.554 39.076 180.266 38.596V43.78H178.826V31H180.086L180.176 32.566C180.44 32.038 180.842 31.618 181.382 31.306C181.934 30.982 182.558 30.82 183.254 30.82ZM183.092 38.92C183.968 38.92 184.658 38.614 185.162 38.002C185.666 37.378 185.918 36.544 185.918 35.5C185.918 34.456 185.666 33.628 185.162 33.016C184.658 32.392 183.968 32.08 183.092 32.08C182.228 32.08 181.538 32.38 181.022 32.98C180.518 33.58 180.266 34.384 180.266 35.392V35.608C180.266 36.616 180.518 37.42 181.022 38.02C181.538 38.62 182.228 38.92 183.092 38.92ZM191.532 37.588C191.532 38.044 191.598 38.362 191.73 38.542C191.874 38.71 192.132 38.794 192.504 38.794C192.756 38.794 192.972 38.776 193.152 38.74C193.344 38.704 193.566 38.638 193.818 38.542L193.584 39.928C193.188 40.096 192.744 40.18 192.252 40.18C191.52 40.18 190.974 39.982 190.614 39.586C190.266 39.19 190.092 38.584 190.092 37.768V26.86H191.532V37.588ZM203.046 38.956C203.286 38.956 203.526 38.926 203.766 38.866L203.676 40C203.34 40.12 202.98 40.18 202.596 40.18C202.128 40.18 201.756 40.078 201.48 39.874C201.216 39.67 201.048 39.328 200.976 38.848C200.7 39.268 200.292 39.598 199.752 39.838C199.224 40.066 198.666 40.18 198.078 40.18C197.19 40.18 196.458 39.976 195.882 39.568C195.306 39.148 195.018 38.548 195.018 37.768C195.018 37.084 195.318 36.496 195.918 36.004C196.518 35.5 197.388 35.152 198.528 34.96L200.922 34.564V34.06C200.922 33.46 200.736 32.98 200.364 32.62C199.992 32.26 199.476 32.08 198.816 32.08C198.216 32.08 197.694 32.224 197.25 32.512C196.818 32.8 196.482 33.226 196.242 33.79L195.18 33.016C195.42 32.344 195.864 31.81 196.512 31.414C197.172 31.018 197.94 30.82 198.816 30.82C199.884 30.82 200.742 31.078 201.39 31.594C202.038 32.11 202.362 32.872 202.362 33.88V38.308C202.362 38.524 202.416 38.686 202.524 38.794C202.632 38.902 202.806 38.956 203.046 38.956ZM198.15 38.92C198.906 38.92 199.554 38.74 200.094 38.38C200.646 38.02 200.922 37.552 200.922 36.976V35.734L198.906 36.112C198.102 36.256 197.502 36.466 197.106 36.742C196.71 37.006 196.512 37.348 196.512 37.768C196.512 38.14 196.656 38.428 196.944 38.632C197.232 38.824 197.634 38.92 198.15 38.92ZM211.018 39.37C210.418 39.91 209.644 40.18 208.696 40.18C207.964 40.18 207.364 39.982 206.896 39.586C206.44 39.19 206.206 38.584 206.194 37.768V32.242H204.394V31H206.194V28.84L207.634 28.444V31H210.964V32.242H207.634V37.516C207.634 37.948 207.754 38.278 207.994 38.506C208.246 38.722 208.576 38.83 208.984 38.83C209.56 38.83 210.07 38.608 210.514 38.164L211.018 39.37ZM220.773 35.032C220.773 35.368 220.749 35.704 220.701 36.04H213.915C213.999 36.952 214.299 37.66 214.815 38.164C215.343 38.668 216.021 38.92 216.849 38.92C217.509 38.92 218.055 38.806 218.487 38.578C218.931 38.35 219.231 38.02 219.387 37.588L220.593 38.218C220.233 38.854 219.753 39.34 219.153 39.676C218.553 40.012 217.785 40.18 216.849 40.18C215.493 40.18 214.425 39.766 213.645 38.938C212.877 38.11 212.493 36.964 212.493 35.5C212.493 34.036 212.859 32.89 213.591 32.062C214.335 31.234 215.385 30.82 216.741 30.82C217.581 30.82 218.307 31.006 218.919 31.378C219.531 31.75 219.993 32.254 220.305 32.89C220.617 33.526 220.773 34.24 220.773 35.032ZM216.741 32.08C215.949 32.08 215.307 32.314 214.815 32.782C214.335 33.25 214.041 33.91 213.933 34.762H219.387C219.291 33.922 219.015 33.268 218.559 32.8C218.103 32.32 217.497 32.08 216.741 32.08Z" fill="#2B292D" fill-opacity="0.6"/>
</svg>
